<svg xmlns="http://www.w3.org/2000/svg" width="17.26" height="24" viewBox="0 0 17.26 24">
  <g id="pin" transform="translate(-68.033 -23)">
    <g id="Group_160" data-name="Group 160" transform="translate(85.333)">
      <path id="Path_65" data-name="Path 65" d="M93.963,0c-4.758,0-8.63,3.589-8.63,8a7.556,7.556,0,0,0,1.036,3.8l7.122,11.94a.561.561,0,0,0,.944,0L101.56,11.8A7.555,7.555,0,0,0,102.593,8C102.593,3.589,98.721,0,93.963,0Zm0,12a4.171,4.171,0,0,1-4.315-4,4.327,4.327,0,0,1,8.63,0A4.171,4.171,0,0,1,93.963,12Z" transform="translate(-102.633 23)" fill="#fff"/>
    </g>
  </g>
</svg>
