<svg xmlns="http://www.w3.org/2000/svg" width="20.5" height="24" viewBox="0 0 20.5 24">
  <g id="booking" transform="translate(-40.96)">
    <path id="Path_59" data-name="Path 59" d="M218.452,323.7h-10.52a.572.572,0,1,1,0-1.144h10.578a.54.54,0,0,1,.572.572A.588.588,0,0,1,218.452,323.7Z" transform="translate(-162.899 -314.981)" fill="#fff"/>
    <path id="Path_60" data-name="Path 60" d="M211.648,528.5h-3.716a.572.572,0,1,1,0-1.143h3.716a.54.54,0,0,1,.572.572A.573.573,0,0,1,211.648,528.5Z" transform="translate(-162.808 -514.969)" fill="#fff"/>
    <path id="Path_61" data-name="Path 61" d="M210.791,710.264h-2.859a.572.572,0,1,1,0-1.143h2.859a.572.572,0,1,1,0,1.143Z" transform="translate(-162.801 -692.459)" fill="#fff"/>
    <path id="Path_62" data-name="Path 62" d="M60.847,0h-4.9a.548.548,0,0,0-.557.6V2.1a.272.272,0,0,1-.279.3H47.2c-.056,0-.279,0-.279-.3V.6a.548.548,0,0,0-.557-.6H41.517a.548.548,0,0,0-.557.6h0V23.4a.548.548,0,0,0,.557.6H50.6a.6.6,0,0,0,0-1.2H42.074V1.2h3.788v.9a1.442,1.442,0,0,0,1.281,1.5c.279,0,7.465.06,8.133,0a1.48,1.48,0,0,0,1.281-1.5V1.2h3.788V11.46a.559.559,0,1,0,1.114,0V.6A.731.731,0,0,0,60.847,0Z" fill="#fff"/>
    <path id="Path_63" data-name="Path 63" d="M369.238,1.144h-5.146a.54.54,0,0,1-.572-.572A.54.54,0,0,1,364.092,0h5.146a.54.54,0,0,1,.572.572A.573.573,0,0,1,369.238,1.144Z" transform="translate(-315.62)" fill="#fff"/>
    <path id="Path_64" data-name="Path 64" d="M431.192,463.36a6.232,6.232,0,1,0,6.232,6.232A6.247,6.247,0,0,0,431.192,463.36Zm3.831,6.632h-3.659a.54.54,0,0,1-.572-.572v-3.259a.572.572,0,1,1,1.144,0v2.63h3.087a.54.54,0,0,1,.572.572A.588.588,0,0,1,435.023,469.992Z" transform="translate(-375.964 -451.882)" fill="#fff"/>
  </g>
</svg>
