<svg xmlns="http://www.w3.org/2000/svg" width="14.638" height="13.467" viewBox="0 0 14.638 13.467">
  <g id="comment" transform="translate(-0.001 1.332)">
    <path id="Path_72" data-name="Path 72" d="M12.626-1.332H2.013A2.015,2.015,0,0,0,0,.68V7.175A2.015,2.015,0,0,0,2.006,9.188v2.947L6.242,9.188h6.384a2.015,2.015,0,0,0,2.012-2.012V.68a2.015,2.015,0,0,0-2.012-2.012Zm1.155,8.507A1.156,1.156,0,0,1,12.626,8.33H5.972L2.864,10.493V8.33H2.013A1.156,1.156,0,0,1,.858,7.175V.68A1.156,1.156,0,0,1,2.013-.474H12.626A1.156,1.156,0,0,1,13.781.68Zm0,0" fill="#546e7a"/>
    <path id="Path_73" data-name="Path 73" d="M171.293,131.172h6.8v.858h-6.8Zm0,0" transform="translate(-167.375 -129.473)" fill="#546e7a"/>
    <path id="Path_74" data-name="Path 74" d="M171.293,211.172h6.8v.858h-6.8Zm0,0" transform="translate(-167.375 -207.644)" fill="#546e7a"/>
    <path id="Path_75" data-name="Path 75" d="M171.293,291.172h6.8v.858h-6.8Zm0,0" transform="translate(-167.375 -285.814)" fill="#546e7a"/>
  </g>
</svg>
