<svg xmlns="http://www.w3.org/2000/svg" width="14.847" height="13.467" viewBox="0 0 14.847 13.467">
  <path id="Path_71" data-name="Path 71" d="M10.519,22.543a4.282,4.282,0,0,0-1.966.472,4.362,4.362,0,0,0-1.129.832,4.362,4.362,0,0,0-1.129-.832,4.282,4.282,0,0,0-1.967-.472A4.333,4.333,0,0,0,0,26.871c0,1.69.893,3.486,2.653,5.336a25.658,25.658,0,0,0,4.521,3.641l.249.161.249-.161a25.658,25.658,0,0,0,4.521-3.641c1.761-1.85,2.653-3.646,2.653-5.336A4.333,4.333,0,0,0,10.519,22.543Zm1.01,9.031a24.284,24.284,0,0,1-4.1,3.34,24.285,24.285,0,0,1-4.1-3.34c-1.593-1.674-2.4-3.256-2.4-4.7a3.41,3.41,0,0,1,6.138-2.046l.367.489.367-.489a3.41,3.41,0,0,1,6.138,2.046C13.929,28.318,13.121,29.9,11.528,31.574Z" transform="translate(0 -22.543)" fill="#546e7a"/>
</svg>
