<svg xmlns="http://www.w3.org/2000/svg" width="24" height="24" viewBox="0 0 24 24">
  <g id="google" transform="translate(0)">
    <path id="Path_43" data-name="Path 43" d="M54.483,302.612A11.912,11.912,0,0,1,36.4,299.549l.782-3.605,3.467-.644a6.4,6.4,0,0,0,6.084,4.5,6.262,6.262,0,0,0,3.727-1.214l3.331.508Z" transform="translate(-34.687 -281.497)" fill="#59c36a"/>
    <path id="Path_44" data-name="Path 44" d="M263.75,369.223l-.692-3.515-3.332-.508A6.262,6.262,0,0,1,256,366.414v5.694A12.028,12.028,0,0,0,263.75,369.223Z" transform="translate(-244.022 -348.108)" fill="#00a66c"/>
    <g id="Connected_Home_1_" transform="translate(0 5.902)">
      <g id="Group_130" data-name="Group 130">
        <g id="Group_129" data-name="Group 129">
          <g id="Group_128" data-name="Group 128">
            <path id="Path_45" data-name="Path 45" d="M5.694,132.5a6.579,6.579,0,0,0,.268,1.849L1.713,138.6a11.713,11.713,0,0,1,0-12.2l3.41.587.839,3.662A6.578,6.578,0,0,0,5.694,132.5Z" transform="translate(0 -126.4)" fill="#ffda2d"/>
          </g>
        </g>
      </g>
    </g>
    <path id="Path_46" data-name="Path 46" d="M253.752,198.823a12.027,12.027,0,0,1-4.3,9.162l-4.023-4.023a6.246,6.246,0,0,0,1.962-2.315h-5.689a.7.7,0,0,1-.706-.706v-4.235a.7.7,0,0,1,.706-.706h11.143a.7.7,0,0,1,.692.579A11.97,11.97,0,0,1,253.752,198.823Z" transform="translate(-229.752 -186.869)" fill="#4086f4"/>
    <path id="Path_47" data-name="Path 47" d="M261.689,201.647a6.247,6.247,0,0,1-1.962,2.315l4.023,4.023a11.93,11.93,0,0,0,4.084-11.406.7.7,0,0,0-.692-.579H256v5.647Z" transform="translate(-244.046 -186.869)" fill="#4175df"/>
    <path id="Path_48" data-name="Path 48" d="M54.681,3.364a.712.712,0,0,1-.2.522L51.462,6.893a.691.691,0,0,1-.918.071,6.314,6.314,0,0,0-3.812-1.27,6.4,6.4,0,0,0-6.084,4.5L36.4,5.948A11.9,11.9,0,0,1,54.427,2.842a.742.742,0,0,1,.254.522Z" transform="translate(-34.687)" fill="#ff641a"/>
    <path id="Path_49" data-name="Path 49" d="M259.811,6.964a.691.691,0,0,0,.918-.071l3.021-3.007a.712.712,0,0,0,.2-.522.742.742,0,0,0-.254-.522A12.01,12.01,0,0,0,256,0V5.694A6.314,6.314,0,0,1,259.811,6.964Z" transform="translate(-244.023 0)" fill="#f03800"/>
  </g>
</svg>
