<svg xmlns="http://www.w3.org/2000/svg" width="20.5" height="24.5" viewBox="0 0 20.5 24.5">
  <g id="notification" transform="translate(-42.675)">
    <g id="Group_157" data-name="Group 157" transform="translate(42.675)">
      <g id="Group_156" data-name="Group 156" transform="translate(0)">
        <path id="Path_57" data-name="Path 57" d="M63.1,21.452l-1.76-3.033A9.24,9.24,0,0,1,60.1,13.784V11.127a7.4,7.4,0,0,0-5.125-7.105v-1.9a2.051,2.051,0,1,0-4.1,0v1.9a7.4,7.4,0,0,0-5.125,7.105v2.657a9.246,9.246,0,0,1-1.241,4.634l-1.76,3.033a.545.545,0,0,0-.006.534.509.509,0,0,0,.445.269H62.663a.511.511,0,0,0,.446-.268A.547.547,0,0,0,63.1,21.452Z" transform="translate(-42.675)" fill="#fff"/>
      </g>
    </g>
    <g id="Group_159" data-name="Group 159" transform="translate(50.567 23.003)">
      <g id="Group_158" data-name="Group 158" transform="translate(0)">
        <path id="Path_58" data-name="Path 58" d="M188.815,469.333a2.6,2.6,0,0,0,4.716,0Z" transform="translate(-188.815 -469.333)" fill="#fff"/>
      </g>
    </g>
  </g>
</svg>
